<?xml version="1.0" encoding="UTF-8" standalone="no"?>
<svg
   width="300"
   height="300"
   viewBox="0 0 300 300"
   fill="none"
   version="1.1"
   id="svg6"
   sodipodi:docname="mouth04.svg"
   inkscape:version="1.2.2 (732a01da63, 2022-12-09)"
   xmlns:inkscape="http://www.inkscape.org/namespaces/inkscape"
   xmlns:sodipodi="http://sodipodi.sourceforge.net/DTD/sodipodi-0.dtd"
   xmlns="http://www.w3.org/2000/svg"
   xmlns:svg="http://www.w3.org/2000/svg">
  <defs
     id="defs10" />
  <sodipodi:namedview
     id="namedview8"
     pagecolor="#ffffff"
     bordercolor="#000000"
     borderopacity="0.25"
     inkscape:showpageshadow="2"
     inkscape:pageopacity="0.0"
     inkscape:pagecheckerboard="0"
     inkscape:deskcolor="#d1d1d1"
     showgrid="false"
     inkscape:zoom="2.79"
     inkscape:cx="93.010753"
     inkscape:cy="150.17921"
     inkscape:window-width="1920"
     inkscape:window-height="1017"
     inkscape:window-x="-8"
     inkscape:window-y="-8"
     inkscape:window-maximized="1"
     inkscape:current-layer="g295" />
  <g
     id="g295"
     transform="translate(10,8)">
    <g
       id="g291"
       transform="translate(0,16)">
      <path
         fill-rule="evenodd"
         clip-rule="evenodd"
         d="m 155.281,158.393 c -3.11,0.501 -6.471,1.32 -9.625,2.249 -1.324,0.391 -2.732,-0.328 -3.156,-1.642 v 0 c -0.424,-1.314 0.297,-2.726 1.621,-3.118 3.344,-0.99 6.963,-1.877 10.364,-2.425 4.103,-0.662 8.337,-0.911 11.366,0.096 1.582,0.525 3.158,1.505 3.991,3.264 0.828,1.746 0.656,3.704 -0.027,5.614 -0.93,2.595 -3.035,5.743 -6.448,9.564 -1.802,2.017 -1.834,5.076 -0.104,7.156 1.24,1.492 2.405,3.028 3.415,4.555 1.157,1.747 2.151,3.54 2.821,5.287 0.66,1.724 1.07,3.573 0.859,5.363 -0.224,1.892 -1.133,3.588 -2.826,4.808 -1.603,1.155 -3.731,1.757 -6.236,1.961 -4.598,0.373 -11.275,-0.539 -20.572,-3.051 -1.333,-0.36 -2.103,-1.746 -1.724,-3.074 v 0 c 0.379,-1.328 1.765,-2.093 3.098,-1.734 9.071,2.445 15.06,3.178 18.793,2.875 2.016,-0.164 3.134,-0.613 3.718,-1.034 0.495,-0.356 0.715,-0.761 0.783,-1.338 0.081,-0.679 -0.056,-1.666 -0.562,-2.987 -0.498,-1.298 -1.29,-2.759 -2.321,-4.316 -2.062,-3.115 -4.925,-6.387 -7.764,-9.186 v 0 c -0.999,-0.985 -0.992,-2.599 0.015,-3.575 v 0 c 6.483,-6.283 9.442,-10.432 10.347,-12.961 0.434,-1.209 0.266,-1.682 0.217,-1.787 -0.044,-0.093 -0.225,-0.385 -1.05,-0.66 -1.784,-0.593 -4.956,-0.555 -8.993,0.096 z"
         fill="#000000"
         id="path2" />
      <path
         d="m 199.767,211.752 c 1.611,2.54 5.033,3.72 7.876,2.687 l 0.41,-0.147 c 19.562,-6.915 32.348,-11.451 35.406,-21.554 1.33,-4.43 0.23,-9.496 -3.043,-13.385 -6.126,-7.287 -16.404,-8.415 -23.377,-4.895 -3.322,-7.068 -12.103,-12.539 -21.427,-10.549 -4.974,1.046 -8.963,4.358 -10.644,8.667 -3.847,9.831 3.458,21.292 14.586,38.844 z"
         fill="#8a3738"
         id="path4"
         style="fill:#d40000" />
    </g>
  </g>
</svg>
