<?xml version="1.0" encoding="UTF-8" standalone="no"?>
<svg
   width="300"
   height="300"
   viewBox="0 0 300 300"
   fill="none"
   version="1.1"
   id="svg10"
   sodipodi:docname="eye07.svg"
   inkscape:version="1.2.2 (732a01da63, 2022-12-09)"
   xmlns:inkscape="http://www.inkscape.org/namespaces/inkscape"
   xmlns:sodipodi="http://sodipodi.sourceforge.net/DTD/sodipodi-0.dtd"
   xmlns="http://www.w3.org/2000/svg"
   xmlns:svg="http://www.w3.org/2000/svg">
  <defs
     id="defs14" />
  <sodipodi:namedview
     id="namedview12"
     pagecolor="#ffffff"
     bordercolor="#000000"
     borderopacity="0.25"
     inkscape:showpageshadow="2"
     inkscape:pageopacity="0.0"
     inkscape:pagecheckerboard="0"
     inkscape:deskcolor="#d1d1d1"
     showgrid="false"
     inkscape:zoom="2.79"
     inkscape:cx="94.802867"
     inkscape:cy="150.17921"
     inkscape:window-width="1920"
     inkscape:window-height="1017"
     inkscape:window-x="-8"
     inkscape:window-y="-8"
     inkscape:window-maximized="1"
     inkscape:current-layer="svg10" />
  <g
     id="g247"
     transform="translate(0,22)">
    <ellipse
       cx="118"
       cy="123"
       rx="12"
       ry="14"
       fill="#79271b"
       id="ellipse2" />
    <ellipse
       cx="181"
       cy="123"
       rx="12"
       ry="14"
       fill="#79271b"
       id="ellipse4" />
    <path
       fill-rule="evenodd"
       clip-rule="evenodd"
       d="m 185.382,102.065 c 4.62,0.405 9.075,-0.452 12.27,-1.543 1.046,-0.357 2.224,0.099 2.668,1.111 v 0 c 0.444,1.011 -0.015,2.195 -1.056,2.564 -3.68,1.301 -8.831,2.326 -14.231,1.853 -5.935,-0.52 -12.238,-2.863 -17.11,-8.6696 -0.71,-0.8462 -0.5,-2.1032 0.397,-2.7478 v 0 c 0.897,-0.6447 2.139,-0.4324 2.861,0.4037 4.039,4.6785 9.184,6.5897 14.201,7.0287 z"
       fill="#d0740f"
       id="path6" />
    <path
       fill-rule="evenodd"
       clip-rule="evenodd"
       d="m 114.742,101.6 c -4.62,0.404 -9.075,-0.452 -12.27,-1.543 -1.046,-0.3569 -2.224,0.099 -2.668,1.11 v 0 c -0.444,1.012 0.0148,2.196 1.056,2.564 3.68,1.302 8.831,2.326 14.231,1.854 5.935,-0.52 12.238,-2.864 17.11,-8.6699 0.71,-0.8462 0.5,-2.1032 -0.397,-2.7478 v 0 c -0.897,-0.6447 -2.139,-0.4324 -2.861,0.4037 -4.039,4.6785 -9.184,6.59 -14.201,7.029 z"
       fill="#d0740f"
       id="path8" />
  </g>
</svg>
