<?xml version="1.0" encoding="UTF-8" standalone="no"?>
<!-- Created with Inkscape (http://www.inkscape.org/) -->

<svg
   width="300"
   height="300"
   viewBox="0 0 79.375 79.374999"
   version="1.1"
   id="svg53324"
   inkscape:version="1.2.2 (732a01da63, 2022-12-09)"
   sodipodi:docname="eye08.svg"
   xml:space="preserve"
   inkscape:export-filename="eye02.svg"
   inkscape:export-xdpi="96"
   inkscape:export-ydpi="96"
   xmlns:inkscape="http://www.inkscape.org/namespaces/inkscape"
   xmlns:sodipodi="http://sodipodi.sourceforge.net/DTD/sodipodi-0.dtd"
   xmlns="http://www.w3.org/2000/svg"
   xmlns:svg="http://www.w3.org/2000/svg"><sodipodi:namedview
     id="namedview53326"
     pagecolor="#ffffff"
     bordercolor="#000000"
     borderopacity="0.25"
     inkscape:showpageshadow="2"
     inkscape:pageopacity="0.0"
     inkscape:pagecheckerboard="0"
     inkscape:deskcolor="#d1d1d1"
     inkscape:document-units="mm"
     showgrid="false"
     inkscape:zoom="1.0544998"
     inkscape:cx="37.932677"
     inkscape:cy="-19.914655"
     inkscape:window-width="1920"
     inkscape:window-height="1017"
     inkscape:window-x="-8"
     inkscape:window-y="-8"
     inkscape:window-maximized="1"
     inkscape:current-layer="svg53324" /><defs
     id="defs53321" /><g
     inkscape:groupmode="layer"
     id="layer5"
     inkscape:label="eye08"
     style="display:inline"
     transform="translate(17.209677,15.080645)"><g
       id="g10130"
       transform="matrix(0.89676038,0,0,0.89676038,2.8615081,1.1374526)"><path
         style="display:inline;fill:#2b0000;stroke:#1a1a1a;stroke-width:0.3"
         d="m 22.057558,20.172049 c 0,0 5.519994,-2.885453 11.66726,-3.63818 6.147268,-0.752726 11.918172,0.50182 11.918172,0.50182 l 0.752726,5.519994 -1.505452,1.129088 c -0.843348,2.836649 -0.893686,6.466308 -3.261815,7.778176 -4.31326,1.702448 -8.775908,2.060398 -13.423625,0.752726 -2.72355,-0.938646 -3.657391,-4.024941 -4.767268,-6.899994 l -3.512725,-0.376362 c 0,0 -1.800123,4.180193 -3.512722,6.021812 -1.712599,1.841619 -6.9730021,2.789763 -14.8036224,0.376363 -3.0726779,-2.704016 -1.26144371,-5.111587 -4.2654505,-9.9109 V 17.66296 c 0,0 12.9218049,-2.383634 19.4454349,0.501817 6.52363,2.885453 5.269087,2.007272 5.269087,2.007272 z"
         id="path423"
         sodipodi:nodetypes="csccccccczcccsc" /><path
         style="display:inline;fill:#58657b;fill-opacity:1;stroke:none;stroke-width:0.3"
         d="M 0.47939686,20.673866 C 8.4161879,19.094423 14.322675,19.164602 16.913926,21.928411 18.723634,24.562954 15.86064,28.891131 14.781202,29.832039 10.67373,30.575472 9.3995669,31.894033 4.1175751,30.333856 1.1062674,28.912441 1.3595584,24.226427 0.47939686,20.673866 Z"
         id="path528"
         sodipodi:nodetypes="ccccc" /><path
         style="display:inline;fill:#58657b;fill-opacity:1;stroke:none;stroke-width:0.3"
         d="m 26.323009,21.928411 c 4.850904,-3.427195 9.701809,-2.284781 14.552713,-1.505455 1.438482,2.059716 2.022751,4.575012 -1.505455,9.283628 -3.303632,1.323808 -6.607265,1.477048 -9.910897,0.125455 -4.792109,-4.273704 -3.449184,-5.863331 -3.136361,-7.903628 z"
         id="path530"
         sodipodi:nodetypes="ccccc" /></g></g></svg>
