<?xml version="1.0" encoding="UTF-8" standalone="no"?>
<svg
   width="300"
   height="300"
   viewBox="0 0 300 300"
   fill="none"
   version="1.1"
   id="svg10"
   sodipodi:docname="eye05.svg"
   inkscape:version="1.2.2 (732a01da63, 2022-12-09)"
   xmlns:inkscape="http://www.inkscape.org/namespaces/inkscape"
   xmlns:sodipodi="http://sodipodi.sourceforge.net/DTD/sodipodi-0.dtd"
   xmlns="http://www.w3.org/2000/svg"
   xmlns:svg="http://www.w3.org/2000/svg">
  <defs
     id="defs14" />
  <sodipodi:namedview
     id="namedview12"
     pagecolor="#ffffff"
     bordercolor="#000000"
     borderopacity="0.25"
     inkscape:showpageshadow="2"
     inkscape:pageopacity="0.0"
     inkscape:pagecheckerboard="0"
     inkscape:deskcolor="#d1d1d1"
     showgrid="false"
     inkscape:zoom="2.79"
     inkscape:cx="256.45161"
     inkscape:cy="150.17921"
     inkscape:window-width="1920"
     inkscape:window-height="1017"
     inkscape:window-x="-8"
     inkscape:window-y="-8"
     inkscape:window-maximized="1"
     inkscape:current-layer="svg10" />
  <g
     id="g247"
     transform="translate(0.12417199,26)">
    <ellipse
       cx="117.634"
       cy="123"
       rx="12"
       ry="14"
       fill="#79271b"
       id="ellipse2" />
    <ellipse
       cx="183.634"
       cy="123"
       rx="12"
       ry="14"
       fill="#79271b"
       id="ellipse4" />
    <path
       fill-rule="evenodd"
       clip-rule="evenodd"
       d="m 112.392,95.5301 c -3.764,3.0442 -6.878,6.4199 -8.926,9.0229 -0.684,0.868 -1.93,1.084 -2.832,0.447 v 0 c -0.9025,-0.637 -1.1199,-1.886 -0.44,-2.756 2.224,-2.8511 5.595,-6.5188 9.682,-9.8241 4.388,-3.5483 9.751,-6.8024 15.524,-8.0566 1.08,-0.2345 2.088,0.5418 2.234,1.6367 v 0 c 0.146,1.0949 -0.626,2.0931 -1.702,2.3436 -4.799,1.1178 -9.476,3.8995 -13.54,7.1865 z"
       fill="#d0740f"
       id="path6" />
    <path
       fill-rule="evenodd"
       clip-rule="evenodd"
       d="m 182.072,97.5674 c -4.62,-0.4045 -9.075,0.4517 -12.27,1.5428 -1.046,0.357 -2.224,-0.0988 -2.668,-1.1102 v 0 c -0.444,-1.0114 0.015,-2.1957 1.056,-2.5641 3.68,-1.3017 8.831,-2.3261 14.231,-1.8533 5.935,0.5197 12.238,2.8632 17.11,8.6694 0.71,0.846 0.5,2.103 -0.397,2.748 v 0 c -0.897,0.645 -2.139,0.432 -2.861,-0.404 -4.039,-4.6783 -9.184,-6.5893 -14.201,-7.0286 z"
       fill="#d0740f"
       id="path8" />
  </g>
</svg>
